<svg xmlns="http://www.w3.org/2000/svg" width="270" height="144.8" viewBox="0 0 270 144.8"><path d="M135,0a32.22,32.22,0,1,0,32.21,32.23h0A32.26,32.26,0,0,0,135,0Zm16,27.49v-22a31.18,31.18,0,0,1,15.18,26.28H151Zm-1-4.16A16.17,16.17,0,0,0,135.47,13V1a30.93,30.93,0,0,1,14.7,4H150ZM134.48,13a16.16,16.16,0,0,0-14.54,10.31V4.86A31.1,31.1,0,0,1,134.48,1ZM119.94,27.54A15.14,15.14,0,0,1,134.48,14V31.7H119.94Zm14.19,5.18L119.94,58.06V32.72Zm.35,1.41v29.3a31,31,0,0,1-14.31-3.73Zm1,0,14.17,25.62a30.88,30.88,0,0,1-14.17,3.66Zm.35-1.43H150V58.37Zm-.35-1V14A15.14,15.14,0,0,1,150,27.54v4.18ZM119,29.12v2.6H103.77A31.2,31.2,0,0,1,119,5.44Zm-15.18,3.6H119V59a31.2,31.2,0,0,1-15.23-26.28ZM151,59V32.72h15.18A31.18,31.18,0,0,1,151,59Z" transform="translate(0 0)" fill="#175c60"/><path d="M7.17,113.25l2.72-.2c1.45-.14,1.94-.38,1.94-.72V84.51H9.55C4.85,84.7,3,87.08,1.5,90L.87,92.07H0l1.65-8.39H26.22l1,8.39h-.78L26,90c-1.6-3.83-3.25-5.38-8-5.52H15.65v28c0,.34.25.44,2.23.63l2.43.15.14.72H7Z" transform="translate(0 0)" fill="#175c60"/><path d="M39.75,88c-1-2.81-1.26-3.29-3.2-3.49l-1.84-.14-.15-.73H47l-.14.73-2,.1c-1.65.09-2.23.48-1.41,2.81l7.76,22.29h.09l6.94-18.22L57,88c-1-2.76-1.35-3.29-3.29-3.49l-1.84-.14-.15-.73H64.08l-.15.73-2,.1c-1.7.09-2.13.58-1.41,2.81l7.95,22.2h.1L75,90.66c1.74-4.89,1.59-5.72-1.9-6.06l-1.55-.19-.14-.73H81.87l-.15.73-1.16.14c-2.33.34-2.62.83-4.9,7.32l-7.85,22.64H66.7l-8-21.86h0l-8.34,21.86H49.2Z" transform="translate(0 0)" fill="#175c60"/><path d="M88.91,113.25l2.37-.2c1.41-.14,1.89-.38,1.89-.72V85.18c0-.33-.24-.43-2.23-.63l-2-.14-.14-.73h12.6l-.15.73-2.32.19c-1.46.15-1.94.39-1.94.73v27.14c0,.34.29.44,2.28.63l1.94.15.14.72H88.76Z" transform="translate(0 0)" fill="#175c60"/><path d="M116,87h-.1l0,23.5c0,1.85.78,2.38,3.15,2.62l1.65.15.15.72H110.33l.14-.72,1.7-.15c1.75-.19,2.76-.68,2.76-2.71V87a4.52,4.52,0,0,0-3.49-2.38l-1.35-.19-.15-.73h8.14l18.57,24.48h.09v-21c0-1.84-.77-2.27-3.15-2.57L132,84.41l-.15-.73h10.47l-.15.73-1.64.14c-1.8.2-2.77.68-2.77,2.67l0,27h-.92Z" transform="translate(0 0)" fill="#175c60"/><path d="M148.43,99.09c0-9.49,7-16.13,16.92-16.13a19.35,19.35,0,0,1,7.85,1.74l2.86-1.11.29,9.16h-.78l-3.15-7a12.36,12.36,0,0,0-7.22-1.89c-7.85,0-12.6,6.49-12.6,14.78,0,9,5.14,15.17,12.7,15.17,4.79,0,7.32-2,9.64-5.43l1.41-3.39h.82l-1.6,7.9h-1.74a24.49,24.49,0,0,1-8.78,1.79C155.46,114.7,148.43,108.59,148.43,99.09Z" transform="translate(0 0)" fill="#175c60"/><path d="M186.87,113.25l2.37-.2c1.41-.14,1.9-.38,1.9-.72V85.18c0-.33-.25-.43-2.23-.63l-2-.14-.15-.73h12.61l-.15.73-2.33.19c-1.45.15-1.94.39-1.94.73v27.14c0,.34.29.44,2.28.63l1.94.15.15.72h-12.6Z" transform="translate(0 0)" fill="#175c60"/><path d="M214.6,113.25l2.71-.2c1.45-.14,1.94-.38,1.94-.72V84.51H217c-4.7.19-6.59,2.57-8,5.47l-.63,2.09h-.88l1.65-8.39h24.57l1,8.39h-.77l-.49-2c-1.6-3.83-3.25-5.38-8-5.52h-2.28v28c0,.34.24.44,2.23.63l2.42.15.15.72H214.45Z" transform="translate(0 0)" fill="#175c60"/><path d="M248.92,113.25l2.76-.2c1.4-.14,1.94-.38,1.94-.72V100.65l-7.76-13.24c-1.11-2-1.79-2.71-3.53-2.86l-1.65-.14-.15-.73h12.41l-.15.73-1.84.1c-2,.09-2.08.87-.73,3.2l6.55,11.43h.14l5.24-9.5c2.08-3.87,2-4.75-.92-5.13l-1.55-.1-.15-.73H270l-.14.73-1.36.1c-2,.24-2.81.72-5.09,4.94l-6,10.57v12.45c0,.34.29.44,2.32.63l2.38.15.14.72H248.77Z" transform="translate(0 0)" fill="#175c60"/><path d="M50.57,144.26h4.32v.49H46.72V130.68h8.21v.47h-6.2v6H52.8v.49H48.73v6.66Z" transform="translate(0 0)" fill="#175c60"/><path d="M71.21,130.68v14.07h-.37L61,131.8v12.6h-.45V130.68h2.11l8,10.69V130.68Z" transform="translate(0 0)" fill="#175c60"/><path d="M77.69,130.68h3.87a10.05,10.05,0,0,1,4.82,1A6.13,6.13,0,0,1,89,134.2a7.78,7.78,0,0,1,.86,3.73,8.11,8.11,0,0,1-.47,2.8,5.76,5.76,0,0,1-1.27,2.09,5.4,5.4,0,0,1-1.88,1.29,6.94,6.94,0,0,1-2,.52,23.85,23.85,0,0,1-2.67.12H77.69Zm4.16,13.6a7.5,7.5,0,0,0,3-.51,4,4,0,0,0,2-2,7.78,7.78,0,0,0,.8-3.73,9.71,9.71,0,0,0-.47-3.17,5.46,5.46,0,0,0-1.31-2.24,4.53,4.53,0,0,0-1.87-1.2,10.35,10.35,0,0,0-2.66-.31,13.39,13.39,0,0,0-1.58.06v13Z" transform="translate(0 0)" fill="#175c60"/><path d="M98,132.58a6.35,6.35,0,0,1,4.78-1.9,6.58,6.58,0,0,1,4.83,1.88,6.5,6.5,0,0,1,2.13,5.14,6.75,6.75,0,0,1-2,5.1,7.07,7.07,0,0,1-9.75,0,6.81,6.81,0,0,1-2.07-5.18A6.46,6.46,0,0,1,98,132.58Zm1.48,10a3.83,3.83,0,0,0,3.46,1.64,4,4,0,0,0,3.4-1.64c.88-1.09,1.09-2.71,1.09-4.88s-.19-3.73-1.07-4.85a4.1,4.1,0,0,0-3.58-1.68,3.71,3.71,0,0,0-3.3,1.64A9.89,9.89,0,0,0,99.48,142.58Z" transform="translate(0 0)" fill="#175c60"/><path d="M116,130.68h3.87a10.07,10.07,0,0,1,4.83,1,6,6,0,0,1,2.57,2.56,7.78,7.78,0,0,1,.86,3.73,8.1,8.1,0,0,1-.46,2.8,5.91,5.91,0,0,1-1.27,2.09,5.4,5.4,0,0,1-1.88,1.29,6.94,6.94,0,0,1-2,.52,24,24,0,0,1-2.68.12H116Zm4.16,13.6a7.5,7.5,0,0,0,3-.51,4,4,0,0,0,2-2A7.89,7.89,0,0,0,126,138a10,10,0,0,0-.47-3.17,5.46,5.46,0,0,0-1.31-2.24,4.46,4.46,0,0,0-1.88-1.2,10.33,10.33,0,0,0-2.65-.31,13.56,13.56,0,0,0-1.59.06v13Z" transform="translate(0 0)" fill="#175c60"/><path d="M136.25,132.58a6.45,6.45,0,0,1,4.79-1.9,6.85,6.85,0,0,1,7,6.7v.3a6.71,6.71,0,0,1-2,5.1,7.07,7.07,0,0,1-9.75,0,6.81,6.81,0,0,1-2.07-5.18A6.45,6.45,0,0,1,136.25,132.58Zm1.49,10a3.82,3.82,0,0,0,3.45,1.64,3.93,3.93,0,0,0,3.4-1.64c.88-1.09,1.1-2.71,1.1-4.88s-.2-3.73-1.08-4.85a4.07,4.07,0,0,0-3.57-1.68,3.71,3.71,0,0,0-3.3,1.64,9.89,9.89,0,0,0,0,9.77Z" transform="translate(0 0)" fill="#175c60"/><path d="M165.08,130.68v14.07h-.37l-9.87-12.95v12.6h-.45V130.68h2.11l8,10.69V130.68Z" transform="translate(0 0)" fill="#175c60"/><path d="M184.73,131.15h-5.87v13.6h-2v-13.6H171v-.47h13.68Z" transform="translate(0 0)" fill="#175c60"/><path d="M192.37,130.68v14.07h-2V130.68Z" transform="translate(0 0)" fill="#175c60"/><path d="M209.75,142.7a5.86,5.86,0,0,1-4.57,2.05,6.53,6.53,0,0,1-4.81-1.86,6.76,6.76,0,0,1-1.86-4.92,8.45,8.45,0,0,1,.86-3.79,5.66,5.66,0,0,1,2.41-2.64,6.88,6.88,0,0,1,3.38-.86,6.09,6.09,0,0,1,2.75.63,5.76,5.76,0,0,1,1.82,1.35v.06l-.39.37a3.48,3.48,0,0,0-.76-.82,4.94,4.94,0,0,0-3.13-1.08,4,4,0,0,0-3.4,1.74,8.26,8.26,0,0,0-1.25,4.94,7,7,0,0,0,1.37,4.69,4.29,4.29,0,0,0,3.42,1.62,5.32,5.32,0,0,0,2.22-.52,3.8,3.8,0,0,0,1.55-1.37Z" transform="translate(0 0)" fill="#175c60"/><path d="M223.2,141.33a3.73,3.73,0,0,1-1.45,2.68,4.37,4.37,0,0,1-3.18.74,5.66,5.66,0,0,1-3.75-2.42l.37-.41a4.49,4.49,0,0,0,3.26,2.32,2.81,2.81,0,0,0,2.29-.56,2.55,2.55,0,0,0,1-1.72,2.28,2.28,0,0,0-.49-1.76,8.56,8.56,0,0,0-2.35-1.7,20.54,20.54,0,0,1-2.3-1.49,3.86,3.86,0,0,1-1.14-1.48,3.66,3.66,0,0,1-.25-1.82,3.12,3.12,0,0,1,1.25-2.28,3.52,3.52,0,0,1,2.62-.69,4.74,4.74,0,0,1,1.56.45A4.36,4.36,0,0,1,222,132.5l-.43.35c-.12-.17-.26-.35-.39-.51a3.08,3.08,0,0,0-2.11-1.11,2.15,2.15,0,0,0-1.82.45,2.09,2.09,0,0,0-.21,3l0,0a9.56,9.56,0,0,0,2.35,1.74,22.38,22.38,0,0,1,2.36,1.5,3.4,3.4,0,0,1,1.14,1.43A3.94,3.94,0,0,1,223.2,141.33Z" transform="translate(0 0)" fill="#175c60"/></svg>